<svg width="18" height="18" viewBox="0 0 18 18" fill="none" xmlns="http://www.w3.org/2000/svg">
<path d="M15 0.75H3C1.75688 0.75 0.75 1.75688 0.75 3V15C0.75 16.2431 1.75688 17.25 3 17.25H15C16.2431 17.25 17.25 16.2431 17.25 15V3C17.25 1.75688 16.2431 0.75 15 0.75ZM15.75 15C15.75 15.4144 15.4144 15.75 15 15.75H3C2.58562 15.75 2.25 15.4144 2.25 15V3C2.25 2.58562 2.58562 2.25 3 2.25H15C15.4144 2.25 15.75 2.58562 15.75 3V15Z" fill="black"/>
<path d="M12.4475 6.6135C12.1547 6.32063 11.6797 6.32063 11.387 6.6135L8.20478 9.79556L6.61384 8.20463C6.32096 7.91175 5.84603 7.91175 5.55315 8.20463C5.26028 8.4975 5.26028 8.97244 5.55315 9.26531L7.67415 11.3863C7.96703 11.6792 8.44196 11.6792 8.73484 11.3863L12.4472 7.674C12.7404 7.38131 12.7404 6.90656 12.4475 6.6135Z" fill="black"/>
</svg>
