<svg width="16" height="9" viewBox="0 0 16 9" fill="none" xmlns="http://www.w3.org/2000/svg">
<path d="M1.52 4.49999C1.52 3.00763 2.632 1.79453 4 1.79453H7.2V0.136353H4C1.792 0.136353 0 2.09126 0 4.49999C0 6.90872 1.792 8.86363 4 8.86363H7.2V7.20544H4C2.632 7.20544 1.52 5.99235 1.52 4.49999ZM4.8 5.37272H11.2V3.62726H4.8V5.37272ZM12 0.136353H8.8V1.79453H12C13.368 1.79453 14.48 3.00763 14.48 4.49999C14.48 5.99235 13.368 7.20544 12 7.20544H8.8V8.86363H12C14.208 8.86363 16 6.90872 16 4.49999C16 2.09126 14.208 0.136353 12 0.136353Z" fill="black"/>
</svg>
