<svg width="35" height="35" viewBox="0 0 35 35" fill="none" xmlns="http://www.w3.org/2000/svg">
<path d="M29.1047 2.18752H11.7469C11.5261 2.19013 11.3061 2.21579 11.0906 2.26408C10.7536 2.21642 10.4138 2.19085 10.0735 2.18752C8.27101 2.18334 6.53181 2.85159 5.19589 4.06162C3.85998 5.27164 3.02341 6.93644 2.84974 8.7305C2.67608 10.5246 3.17781 12.3189 4.25684 13.7627C5.33587 15.2065 6.91461 16.1959 8.6844 16.5375V29.75C8.68728 30.5614 9.01086 31.3386 9.58457 31.9124C10.1583 32.4861 10.9356 32.8096 11.7469 32.8125H29.1047C29.5069 32.8125 29.9051 32.7333 30.2767 32.5794C30.6482 32.4255 30.9858 32.1999 31.2702 31.9155C31.5546 31.6312 31.7802 31.2935 31.9341 30.922C32.088 30.5504 32.1672 30.1522 32.1672 29.75V5.25002C32.1672 4.43779 31.8446 3.65884 31.2702 3.08451C30.6959 2.51017 29.9169 2.18752 29.1047 2.18752ZM4.87815 9.42814C4.87815 8.39798 5.18377 7.39097 5.75632 6.53457C6.32888 5.67817 7.14263 5.01089 8.09459 4.61716C9.04654 4.22343 10.0939 4.12097 11.1041 4.32275C12.1143 4.52452 13.042 5.02145 13.7696 5.75065C14.4973 6.47986 14.9923 7.40854 15.1919 8.41918C15.3916 9.42981 15.2869 10.477 14.8912 11.4281C14.4955 12.3792 13.8265 13.1916 12.9689 13.7623C12.1113 14.3331 11.1036 14.6366 10.0735 14.6344C9.39028 14.6344 8.71381 14.4997 8.08277 14.2379C7.45173 13.9761 6.87852 13.5924 6.39595 13.1089C5.91337 12.6253 5.53092 12.0513 5.27047 11.4197C5.01003 10.7881 4.87671 10.1113 4.87815 9.42814ZM30.1219 29.75C30.1219 30.0198 30.0147 30.2785 29.824 30.4693C29.6332 30.66 29.3745 30.7672 29.1047 30.7672H11.7469C11.4771 30.7672 11.2184 30.66 11.0276 30.4693C10.8369 30.2785 10.7297 30.0198 10.7297 29.75V16.625C12.4536 16.466 14.0618 15.6891 15.2578 14.4375C15.345 14.4481 15.4332 14.4481 15.5203 14.4375H25.3641C25.6165 14.4375 25.8585 14.3373 26.0369 14.1588C26.2154 13.9804 26.3156 13.7383 26.3156 13.486C26.3156 13.2336 26.2154 12.9916 26.0369 12.8131C25.8585 12.6346 25.6165 12.5344 25.3641 12.5344H16.6141C17.2908 11.1613 17.5136 9.60866 17.2501 8.10072C16.9867 6.59277 16.2507 5.20761 15.1485 4.14533H29.1485C29.4182 4.14533 29.677 4.2525 29.8677 4.44326C30.0585 4.63402 30.1656 4.89274 30.1656 5.16252L30.1219 29.75Z" fill="black"/>
<path d="M13.3437 7.01094C13.2499 6.91437 13.1377 6.83759 13.0137 6.78516C12.8897 6.73273 12.7564 6.70572 12.6218 6.70572C12.4872 6.70572 12.3539 6.73273 12.2299 6.78516C12.1059 6.83759 11.9937 6.91437 11.8999 7.01094L9.23119 9.69063L8.24681 8.75001C8.16183 8.6306 8.05205 8.53097 7.92499 8.45793C7.79793 8.38489 7.65659 8.34017 7.51064 8.32683C7.36469 8.3135 7.21758 8.33185 7.07938 8.38065C6.94119 8.42945 6.81517 8.50753 6.70996 8.60956C6.60474 8.71159 6.52282 8.83514 6.46979 8.97177C6.41677 9.1084 6.39389 9.25488 6.40273 9.40117C6.41157 9.54746 6.45192 9.69011 6.52102 9.81936C6.59011 9.94861 6.68632 10.0614 6.80306 10.15L8.50931 11.8563C8.60429 11.9506 8.71695 12.0252 8.84082 12.0759C8.96469 12.1265 9.09735 12.1523 9.23119 12.1516C9.49992 12.1452 9.7569 12.0401 9.95306 11.8563L13.3437 8.4547C13.4403 8.36091 13.517 8.24869 13.5695 8.1247C13.6219 8.0007 13.6489 7.86744 13.6489 7.73282C13.6489 7.5982 13.6219 7.46494 13.5695 7.34094C13.517 7.21695 13.4403 7.10473 13.3437 7.01094Z" fill="black"/>
<path d="M25.3312 16.5484H15.4875C15.2351 16.5484 14.993 16.6487 14.8146 16.8271C14.6361 17.0056 14.5359 17.2476 14.5359 17.5C14.5359 17.7524 14.6361 17.9944 14.8146 18.1728C14.993 18.3513 15.2351 18.4516 15.4875 18.4516H25.3312C25.5836 18.4516 25.8256 18.3513 26.0041 18.1728C26.1825 17.9944 26.2828 17.7524 26.2828 17.5C26.2828 17.2476 26.1825 17.0056 26.0041 16.8271C25.8256 16.6487 25.5836 16.5484 25.3312 16.5484Z" fill="black"/>
<path d="M25.3312 20.475H15.4875C15.2351 20.475 14.993 20.5753 14.8146 20.7537C14.6361 20.9322 14.5359 21.1742 14.5359 21.4266C14.5359 21.6789 14.6361 21.921 14.8146 22.0994C14.993 22.2779 15.2351 22.3781 15.4875 22.3781H25.3312C25.5836 22.3781 25.8256 22.2779 26.0041 22.0994C26.1825 21.921 26.2828 21.6789 26.2828 21.4266C26.2828 21.1742 26.1825 20.9322 26.0041 20.7537C25.8256 20.5753 25.5836 20.475 25.3312 20.475Z" fill="black"/>
</svg>
