<svg width="35" height="35" viewBox="0 0 35 35" fill="none" xmlns="http://www.w3.org/2000/svg">
<path d="M26.1735 2.1875H8.82666C8.01443 2.1875 7.23548 2.51016 6.66115 3.08449C6.08682 3.65882 5.76416 4.43777 5.76416 5.25V29.75C5.76416 30.1522 5.84337 30.5504 5.99728 30.922C6.15118 31.2935 6.37677 31.6311 6.66115 31.9155C6.94553 32.1999 7.28313 32.4255 7.65469 32.5794C8.02625 32.7333 8.42449 32.8125 8.82666 32.8125H26.1735C26.5757 32.8125 26.9739 32.7333 27.3455 32.5794C27.7171 32.4255 28.0547 32.1999 28.3391 31.9155C28.6234 31.6311 28.849 31.2935 29.0029 30.922C29.1568 30.5504 29.236 30.1522 29.236 29.75V5.25C29.236 4.84783 29.1568 4.44959 29.0029 4.07803C28.849 3.70647 28.6234 3.36886 28.3391 3.08449C28.0547 2.80011 27.7171 2.57452 27.3455 2.42062C26.9739 2.26671 26.5757 2.1875 26.1735 2.1875ZM27.2017 29.75C27.1988 30.0208 27.0892 30.2795 26.8967 30.4699C26.7042 30.6604 26.4443 30.7672 26.1735 30.7672H8.82666C8.55587 30.7672 8.29601 30.6604 8.10351 30.4699C7.91101 30.2795 7.80142 30.0208 7.79854 29.75V5.25C7.80142 4.97922 7.91101 4.72052 8.10351 4.53007C8.29601 4.33961 8.55587 4.2328 8.82666 4.23281H26.1735C26.4443 4.2328 26.7042 4.33961 26.8967 4.53007C27.0892 4.72052 27.1988 4.97922 27.2017 5.25V29.75Z" fill="black"/>
<path d="M23.0941 13.0053H12.9059C12.7916 12.9909 12.676 13.0059 12.5666 13.0493C12.4573 13.0927 12.3567 13.1636 12.2713 13.2574C12.1859 13.3511 12.1176 13.4657 12.0709 13.5936C12.0241 13.7215 12 13.86 12 14C12 14.14 12.0241 14.2785 12.0709 14.4064C12.1176 14.5343 12.1859 14.6489 12.2713 14.7426C12.3567 14.8364 12.4573 14.9073 12.5666 14.9507C12.676 14.9941 12.7916 15.0091 12.9059 14.9947H23.0941C23.2084 15.0091 23.324 14.9941 23.4334 14.9507C23.5427 14.9073 23.6433 14.8364 23.7287 14.7426C23.8141 14.6489 23.8824 14.5343 23.9291 14.4064C23.9759 14.2785 24 14.14 24 14C24 13.86 23.9759 13.7215 23.9291 13.5936C23.8824 13.4657 23.8141 13.3511 23.7287 13.2574C23.6433 13.1636 23.5427 13.0927 23.4334 13.0493C23.324 13.0059 23.2084 12.9909 23.0941 13.0053Z" fill="black"/>
<path d="M23.1746 17H12.8254C12.6065 17 12.3966 17.1054 12.2418 17.2929C12.087 17.4804 12 17.7348 12 18C12 18.2652 12.087 18.5196 12.2418 18.7071C12.3966 18.8946 12.6065 19 12.8254 19H23.1746C23.3935 19 23.6034 18.8946 23.7582 18.7071C23.913 18.5196 24 18.2652 24 18C24 17.7348 23.913 17.4804 23.7582 17.2929C23.6034 17.1054 23.3935 17 23.1746 17Z" fill="black"/>
<path d="M23.0941 21.0053H12.9059C12.7916 20.9909 12.676 21.0059 12.5666 21.0493C12.4573 21.0927 12.3567 21.1636 12.2713 21.2574C12.1859 21.3511 12.1176 21.4657 12.0709 21.5936C12.0241 21.7215 12 21.86 12 22C12 22.14 12.0241 22.2785 12.0709 22.4064C12.1176 22.5343 12.1859 22.6489 12.2713 22.7426C12.3567 22.8364 12.4573 22.9073 12.5666 22.9507C12.676 22.9941 12.7916 23.0091 12.9059 22.9947H23.0941C23.2084 23.0091 23.324 22.9941 23.4334 22.9507C23.5427 22.9073 23.6433 22.8364 23.7287 22.7426C23.8141 22.6489 23.8824 22.5343 23.9291 22.4064C23.9759 22.2785 24 22.14 24 22C24 21.86 23.9759 21.7215 23.9291 21.5936C23.8824 21.4657 23.8141 21.3511 23.7287 21.2574C23.6433 21.1636 23.5427 21.0927 23.4334 21.0493C23.324 21.0059 23.2084 20.9909 23.0941 21.0053Z" fill="black"/>
</svg>
