<svg width="82" height="70" viewBox="0 0 82 70" fill="none" xmlns="http://www.w3.org/2000/svg">
<path d="M8.5669 9.61843C9.03507 9.61843 9.47983 9.43116 9.80755 9.10344C10.1353 8.77573 10.3225 8.33097 10.3225 7.8628C10.3225 7.39464 10.1353 6.94988 9.80755 6.62216C9.47983 6.29444 9.03507 6.10718 8.5669 6.10718C8.09874 6.10718 7.65398 6.29444 7.32626 6.62216C6.99855 6.94988 6.81128 7.39464 6.81128 7.8628C6.81128 8.33097 6.99855 8.77573 7.32626 9.10344C7.65398 9.43116 8.09874 9.61843 8.5669 9.61843Z" fill="black"/>
<path d="M14.3025 9.61843C14.7707 9.61843 15.2154 9.43116 15.5431 9.10344C15.8709 8.77573 16.0581 8.33097 16.0581 7.8628C16.0581 7.39464 15.8709 6.94988 15.5431 6.62216C15.2154 6.29444 14.7707 6.10718 14.3025 6.10718C13.8343 6.10718 13.3896 6.29444 13.0619 6.62216C12.7341 6.94988 12.5469 7.39464 12.5469 7.8628C12.5469 8.33097 12.7341 8.77573 13.0619 9.10344C13.3896 9.43116 13.8343 9.61843 14.3025 9.61843Z" fill="black"/>
<path d="M20.0142 9.61843C20.4823 9.61843 20.9271 9.43116 21.2548 9.10344C21.5825 8.77573 21.7698 8.33097 21.7698 7.8628C21.7698 7.39464 21.5825 6.94988 21.2548 6.62216C20.9271 6.29444 20.4823 6.10718 20.0142 6.10718C19.546 6.10718 19.1012 6.29444 18.7735 6.62216C18.4458 6.94988 18.2585 7.39464 18.2585 7.8628C18.2585 8.33097 18.4458 8.77573 18.7735 9.10344C19.1247 9.43116 19.5694 9.61843 20.0142 9.61843Z" fill="black"/>
<path d="M41.8307 26.6361H36.1893L34.5742 21.6033C34.2699 20.6903 33.2867 20.1753 32.3738 20.4797C31.4609 20.784 30.9459 21.7671 31.2502 22.68L32.5142 26.6361H19.546L20.8101 22.68C21.1144 21.7671 20.5994 20.7606 19.6865 20.4797C18.7735 20.1753 17.767 20.6903 17.4861 21.6033L15.8709 26.6361H10.2295C9.26976 26.6361 8.47388 27.4319 8.47388 28.3917C8.47388 29.3514 9.26976 30.1473 10.2295 30.1473H12.3597L16.8072 41.594C17.0647 42.2728 17.7202 42.7176 18.4458 42.7176H33.6144C34.3401 42.7176 34.9955 42.2728 35.253 41.594L39.7006 30.1473H41.8307C42.7905 30.1473 43.5864 29.3514 43.5864 28.3917C43.5864 27.4319 42.8139 26.6361 41.8307 26.6361ZM32.4206 39.2063H19.6397L16.1284 30.1473H17.135H34.9019H35.9084L32.4206 39.2063Z" fill="black"/>
<path d="M62.8279 42.858C58.5208 42.858 55.033 46.3693 55.033 50.653C55.033 54.9367 58.5442 58.448 62.8279 58.448C67.1117 58.448 70.6229 54.9367 70.6229 50.653C70.6229 46.3693 67.1351 42.858 62.8279 42.858ZM62.8279 54.9601C60.4637 54.9601 58.5442 53.0407 58.5442 50.6764C58.5442 48.3122 60.4637 46.3927 62.8279 46.3927C65.1922 46.3927 67.1117 48.3122 67.1117 50.6764C67.1351 53.0407 65.1922 54.9601 62.8279 54.9601Z" fill="black"/>
<path d="M80.4778 45.7374L75.9132 45.1521L78.6052 41.4068C79.0968 40.7046 79.0265 39.7448 78.4179 39.1362L74.1342 34.8525C73.5022 34.2205 72.519 34.1736 71.8168 34.712L68.1651 37.521L67.416 32.9798C67.2756 32.1605 66.5967 31.5519 65.8008 31.5051V14.0425V7.83927C65.8008 3.7194 62.4534 0.372009 58.3336 0.372009H7.46726C3.34739 0.372009 0 3.7194 0 7.83927V14.0425C0 14.0425 0 14.0425 0 14.0659C0 14.0893 0 14.0659 0 14.0893V51.0042C0 55.1241 3.34739 58.4715 7.46726 58.4715H48.1275L47.0507 59.9696C46.5592 60.6719 46.6294 61.6316 47.238 62.2402L51.5217 66.524C52.1538 67.156 53.1369 67.2028 53.8392 66.6644L57.4909 63.8554L58.2399 68.3966C58.3804 69.2393 59.106 69.8713 59.9721 69.8713H66.0349C66.9244 69.8713 67.6735 69.2159 67.7671 68.3498L68.3523 63.7852L72.0977 66.4771C72.7999 66.9687 73.7597 66.8985 74.3683 66.2899L78.652 62.0061C79.284 61.3741 79.3308 60.391 78.7924 59.6887L75.9834 56.037L80.5247 55.288C81.3674 55.1475 81.9994 54.4218 81.9994 53.5557V47.493C82.0228 46.5801 81.3674 45.831 80.4778 45.7374ZM7.46726 3.88326H58.3336C60.5105 3.88326 62.2896 5.66229 62.2896 7.83927V12.2869H3.51125V7.83927C3.51125 5.66229 5.29028 3.88326 7.46726 3.88326ZM3.51125 50.9808V15.7981H62.2896V31.4817H59.621C58.7315 31.4817 57.9824 32.1371 57.8888 33.0032L57.3036 37.5678L53.5583 34.8759C52.856 34.3843 51.8963 34.4545 51.2877 35.0632L47.0039 39.3469C46.3719 39.9789 46.3251 40.9621 46.8635 41.6643L49.6725 45.316L45.1313 46.0651C44.2886 46.2055 43.6565 46.9312 43.6565 47.7973V53.8601C43.6565 54.258 43.797 54.6325 44.0311 54.9368H7.46726C5.29028 54.9368 3.51125 53.1578 3.51125 50.9808ZM78.5116 52.0342L72.917 52.9471C72.3083 53.0408 71.7934 53.4621 71.5593 54.0473C71.5125 54.1644 71.4656 54.258 71.4422 54.375C71.1847 54.9602 71.2784 55.6391 71.6763 56.1541L75.0939 60.5782L72.9404 62.7318L68.3289 59.4312C67.8139 59.0801 67.1585 59.0099 66.5967 59.244C66.5031 59.2908 66.386 59.3376 66.2924 59.3844C65.7072 59.6185 65.2858 60.1569 65.1922 60.7889L64.49 66.3601H61.4703L60.5574 60.7655C60.4637 60.1569 60.0424 59.6419 59.4572 59.4078C59.3401 59.361 59.2465 59.3142 59.1294 59.2908C58.5442 59.0333 57.8654 59.1269 57.3504 59.5249L52.9262 62.9425L50.7727 60.7889L52.9731 57.7224C52.9965 57.699 52.9965 57.6756 53.0199 57.6756L54.0967 56.2009C54.4478 55.6859 54.518 55.0305 54.2839 54.4687C54.2371 54.375 54.1903 54.258 54.1435 54.1644C53.9094 53.5791 53.371 53.1578 52.739 53.0642L47.1678 52.3619V49.3422L52.7624 48.4293C53.371 48.3357 53.886 47.9143 54.1201 47.3291C54.1669 47.2121 54.2137 47.1184 54.2371 47.0248C54.4946 46.4396 54.401 45.7608 54.003 45.2458L50.5854 40.8216L52.739 38.668L57.3504 41.9686C57.8654 42.3197 58.5208 42.39 59.0826 42.1559C59.1763 42.1091 59.2933 42.0622 59.4103 42.0154C59.9956 41.7813 60.4169 41.243 60.5105 40.6109L61.2128 35.0398H64.2325L65.1454 40.6343C65.239 41.243 65.6604 41.7579 66.2456 41.992C66.3626 42.0388 66.4563 42.0857 66.5733 42.1325C67.1585 42.39 67.8373 42.2963 68.3523 41.8984L72.7765 38.4808L74.9301 40.6343L71.6295 45.2458C71.2784 45.7608 71.2082 46.4162 71.4422 46.978C71.4891 47.0716 71.5359 47.1887 71.5827 47.3057C71.8168 47.8909 72.3552 48.3123 72.9872 48.4059L78.5584 49.1082V52.0342H78.5116Z" fill="black"/>
</svg>
