<svg width="64" height="64" viewBox="0 0 64 64" fill="none" xmlns="http://www.w3.org/2000/svg">
<path fill-rule="evenodd" clip-rule="evenodd" d="M9.91253 53.0208C10.1205 53.2288 10.3936 53.3333 10.6667 53.3333C10.9397 53.3333 11.2128 53.2288 11.4208 53.0208L16 48.4416L20.5792 53.0208C20.7872 53.2288 21.0603 53.3333 21.3333 53.3333C21.6064 53.3333 21.8795 53.2288 22.0875 53.0208C22.5045 52.6037 22.5045 51.9296 22.0875 51.5125L17.5083 46.9333L22.0875 42.3541C22.5045 41.9371 22.5045 41.2629 22.0875 40.8459C21.6704 40.4288 20.9963 40.4288 20.5792 40.8459L16 45.4251L11.4208 40.8459C11.0037 40.4288 10.3296 40.4288 9.91253 40.8459C9.49547 41.2629 9.49547 41.9371 9.91253 42.3541L14.4917 46.9333L9.91253 51.5125C9.49547 51.9296 9.49547 52.6037 9.91253 53.0208ZM41.6 51.2H54.4C54.9888 51.2 55.4667 50.7221 55.4667 50.1333C55.4667 49.5445 54.9888 49.0667 54.4 49.0667H41.6C41.0112 49.0667 40.5333 49.5445 40.5333 50.1333C40.5333 50.7221 41.0112 51.2 41.6 51.2ZM41.6 44.8H54.4C54.9888 44.8 55.4667 44.3221 55.4667 43.7333C55.4667 43.1445 54.9888 42.6667 54.4 42.6667H41.6C41.0112 42.6667 40.5333 43.1445 40.5333 43.7333C40.5333 44.3221 41.0112 44.8 41.6 44.8ZM41.6 14.9333C41.0112 14.9333 40.5333 15.4112 40.5333 16C40.5333 16.5888 41.0112 17.0667 41.6 17.0667H54.4C54.9888 17.0667 55.4667 16.5888 55.4667 16C55.4667 15.4112 54.9888 14.9333 54.4 14.9333H41.6ZM16 23.4667C16.5888 23.4667 17.0667 22.9888 17.0667 22.4V17.0667H22.4C22.9888 17.0667 23.4667 16.5888 23.4667 16C23.4667 15.4112 22.9888 14.9333 22.4 14.9333H17.0667V9.6C17.0667 9.0112 16.5888 8.53333 16 8.53333C15.4112 8.53333 14.9333 9.0112 14.9333 9.6V14.9333H9.6C9.0112 14.9333 8.53333 15.4112 8.53333 16C8.53333 16.5888 9.0112 17.0667 9.6 17.0667H14.9333V22.4C14.9333 22.9888 15.4112 23.4667 16 23.4667ZM64 5.33333V58.6667C64 61.408 61.408 64 58.6667 64H5.33333C2.592 64 0 61.408 0 58.6667V5.33333C0 2.592 2.592 0 5.33333 0H26.6667C27.2555 0 27.7333 0.477867 27.7333 1.06667C27.7333 1.65547 27.2555 2.13333 26.6667 2.13333H5.33333C3.77813 2.13333 2.13333 3.77813 2.13333 5.33333V58.6667C2.13333 60.2219 3.77813 61.8667 5.33333 61.8667H58.6667C60.2219 61.8667 61.8667 60.2219 61.8667 58.6667V5.33333C61.8667 3.77813 60.2219 2.13333 58.6667 2.13333H33.0667V29.8667H58.6667C59.2555 29.8667 59.7333 30.3445 59.7333 30.9333C59.7333 31.5221 59.2555 32 58.6667 32H33.0667V58.6667C33.0667 59.2555 32.5888 59.7333 32 59.7333C31.4112 59.7333 30.9333 59.2555 30.9333 58.6667V32H5.33333C4.74453 32 4.26667 31.5221 4.26667 30.9333C4.26667 30.3445 4.74453 29.8667 5.33333 29.8667H30.9333V1.06667C30.9333 0.477867 31.4112 0 32 0H58.6667C61.408 0 64 2.592 64 5.33333Z" fill="black"/>
</svg>
