<svg width="64" height="64" viewBox="0 0 64 64" fill="none" xmlns="http://www.w3.org/2000/svg">
<path d="M61 19.7999H2V55.1999H61V19.7999Z" stroke="black" stroke-width="2" stroke-miterlimit="10" stroke-linecap="round" stroke-linejoin="round"/>
<path d="M61 8H2V19.8H61V8Z" stroke="black" stroke-width="2" stroke-miterlimit="10" stroke-linecap="round" stroke-linejoin="round"/>
<path d="M9.86681 15.8667C10.953 15.8667 11.8335 14.9861 11.8335 13.9C11.8335 12.8138 10.953 11.9333 9.86681 11.9333C8.78065 11.9333 7.90015 12.8138 7.90015 13.9C7.90015 14.9861 8.78065 15.8667 9.86681 15.8667Z" fill="black"/>
<path d="M17.7335 15.8667C18.8197 15.8667 19.7002 14.9861 19.7002 13.9C19.7002 12.8138 18.8197 11.9333 17.7335 11.9333C16.6474 11.9333 15.7668 12.8138 15.7668 13.9C15.7668 14.9861 16.6474 15.8667 17.7335 15.8667Z" fill="black"/>
<path d="M25.6 15.8667C26.6861 15.8667 27.5666 14.9861 27.5666 13.9C27.5666 12.8138 26.6861 11.9333 25.6 11.9333C24.5138 11.9333 23.6333 12.8138 23.6333 13.9C23.6333 14.9861 24.5138 15.8667 25.6 15.8667Z" fill="black"/>
<path d="M22.65 27.6667L12.8167 37.5L22.65 47.3333" stroke="black" stroke-width="2" stroke-miterlimit="10" stroke-linecap="round" stroke-linejoin="round"/>
<path d="M40.3499 27.6667L50.1832 37.5L40.3499 47.3333" stroke="black" stroke-width="2" stroke-miterlimit="10" stroke-linecap="round" stroke-linejoin="round"/>
<path d="M28.5502 49.3001L34.4502 25.7001" stroke="black" stroke-width="2" stroke-miterlimit="10" stroke-linecap="round" stroke-linejoin="round"/>
</svg>
