<svg width="21" height="21" viewBox="0 0 21 21" fill="none" xmlns="http://www.w3.org/2000/svg">
<path d="M10.5 12.5834C13.3764 12.5834 15.7083 9.78515 15.7083 6.33337C15.7083 2.88159 13.3764 0.083374 10.5 0.083374C7.62348 0.083374 5.29163 2.88159 5.29163 6.33337C5.29163 9.78515 7.62348 12.5834 10.5 12.5834Z" fill="#B111EA"/>
<path d="M20.7083 17.8959C19.7708 16.0209 18 14.4584 15.7083 13.5209C15.0833 13.3126 14.3542 13.3126 13.8333 13.6251C12.7917 14.2501 11.75 14.5626 10.5 14.5626C9.25 14.5626 8.20834 14.2501 7.16667 13.6251C6.64584 13.4168 5.91667 13.3126 5.29167 13.6251C3 14.5626 1.22917 16.1251 0.291669 18.0001C-0.437498 19.3543 0.708335 20.9168 2.27084 20.9168H18.7292C20.2917 20.9168 21.4375 19.3543 20.7083 17.8959Z" fill="#B111EA"/>
</svg>
