<svg width="20" height="23" viewBox="0 0 20 23" fill="none" xmlns="http://www.w3.org/2000/svg">
<path fill-rule="evenodd" clip-rule="evenodd" d="M17.3352 23.0009H2.67952C1.66752 23.0009 0.848022 22.1796 0.848022 21.1667V11.9945C0.848022 10.9816 1.66844 10.1593 2.67952 10.1593H3.59527V7.40842C3.59527 3.86275 6.46627 0.988083 10.0074 0.988083C13.5484 0.988083 16.4194 3.86275 16.4194 7.40842V10.1593H17.3352C18.3472 10.1593 19.1667 10.9807 19.1667 11.9945V21.1667C19.1667 22.1787 18.3463 23.0009 17.3352 23.0009ZM13.6713 7.40842C13.6713 5.38258 12.0304 3.73992 10.0074 3.73992C7.98427 3.73992 6.34344 5.38258 6.34344 7.40842V10.1593H13.6713V7.40842Z" fill="#767676"/>
</svg>
